<?xml version="1.0" encoding="UTF-8"?>
<svg id="Camada_2" data-name="Camada 2" xmlns="http://www.w3.org/2000/svg" viewBox="0 0 859.58 767.13">
  <defs>
    <style>
      .cls-1 {
        fill: #fff;
      }
    </style>
  </defs>
  <g id="Camada_1-2" data-name="Camada 1">
    <path class="cls-1" d="M463.32,0v23.03h-219.7v597.09h-23.92V23.03H0V0h463.32ZM833.89,251.25c-16.83-38.09-39.87-70.87-69.1-98.33-29.23-27.46-63.78-48.72-102.76-63.78-38.98-15.06-80.62-23.03-124.91-23.03l1.77-.89h-254.25v619.24h54.18v-23.92h-28.49V86.48h230.33c40.75,0,78.85,7.09,115.17,20.38,36.32,13.29,68.21,32.78,94.79,57.58,26.58,24.81,47.84,55.81,63.78,92.13,15.95,36.32,23.92,76.19,23.92,120.48s-7.97,83.27-23.92,118.71c-15.95,35.44-37.21,65.56-63.78,90.36-26.58,24.8-57.58,43.41-92.13,56.7-34.55,13.29-71.76,19.49-110.74,19.49l-146.47-1.77v23.92h146.47c42.52,0,82.39-6.2,120.48-21.26,38.09-15.06,70.87-36.32,99.22-63.78,28.35-27.46,50.5-59.35,67.33-96.56,16.83-37.21,24.8-78.84,24.8-124.03s-8.86-89.48-25.69-127.57ZM382.35,743.43V128.77h-24.62v638.37h392.14v-23.71h-367.52Z"/>
  </g>
</svg>